<svg class="rich-terminal" viewBox="0 0 1360 904.0" xmlns="http://www.w3.org/2000/svg">
    <!-- Generated with Rich https://www.textualize.io -->
    <style>

    @font-face {
        font-family: "Fira Code";
        src: local("FiraCode-Regular"),
                url("https://cdnjs.cloudflare.com/ajax/libs/firacode/6.2.0/woff2/FiraCode-Regular.woff2") format("woff2"),
                url("https://cdnjs.cloudflare.com/ajax/libs/firacode/6.2.0/woff/FiraCode-Regular.woff") format("woff");
        font-style: normal;
        font-weight: 400;
    }
    @font-face {
        font-family: "Fira Code";
        src: local("FiraCode-Bold"),
                url("https://cdnjs.cloudflare.com/ajax/libs/firacode/6.2.0/woff2/FiraCode-Bold.woff2") format("woff2"),
                url("https://cdnjs.cloudflare.com/ajax/libs/firacode/6.2.0/woff/FiraCode-Bold.woff") format("woff");
        font-style: bold;
        font-weight: 700;
    }

    .terminal-792540815-matrix {
        font-family: Fira Code, monospace;
        font-size: 20px;
        line-height: 24.4px;
        font-variant-east-asian: full-width;
    }

    .terminal-792540815-title {
        font-size: 18px;
        font-weight: bold;
        font-family: arial;
    }

    .terminal-792540815-r1 { fill: #c5c8c6 }
.terminal-792540815-r2 { fill: #c5c5c5;font-weight: bold }
.terminal-792540815-r3 { fill: #171717 }
.terminal-792540815-r4 { fill: #191919 }
.terminal-792540815-r5 { fill: #e0e0e0 }
.terminal-792540815-r6 { fill: #7f7f7f }
.terminal-792540815-r7 { fill: #b7b7b7 }
.terminal-792540815-r8 { fill: #c5c5c5 }
.terminal-792540815-r9 { fill: #6b6b6b }
.terminal-792540815-r10 { fill: #121212 }
.terminal-792540815-r11 { fill: #a9a9a9 }
.terminal-792540815-r12 { fill: #2d2d2d }
.terminal-792540815-r13 { fill: #eaeaea;font-weight: bold }
.terminal-792540815-r14 { fill: #e0e0e0;font-weight: bold }
.terminal-792540815-r15 { fill: #3a3a3a }
.terminal-792540815-r16 { fill: #0d0d0d }
.terminal-792540815-r17 { fill: #b0b0b0;font-weight: bold }
.terminal-792540815-r18 { fill: #515151 }
    </style>

    <defs>
    <clipPath id="terminal-792540815-clip-terminal">
      <rect x="0" y="0" width="1341.0" height="853.0" />
    </clipPath>
    <clipPath id="terminal-792540815-line-0">
    <rect x="0" y="1.5" width="1342" height="24.65"/>
            </clipPath>
<clipPath id="terminal-792540815-line-1">
    <rect x="0" y="25.9" width="1342" height="24.65"/>
            </clipPath>
<clipPath id="terminal-792540815-line-2">
    <rect x="0" y="50.3" width="1342" height="24.65"/>
            </clipPath>
<clipPath id="terminal-792540815-line-3">
    <rect x="0" y="74.7" width="1342" height="24.65"/>
            </clipPath>
<clipPath id="terminal-792540815-line-4">
    <rect x="0" y="99.1" width="1342" height="24.65"/>
            </clipPath>
<clipPath id="terminal-792540815-line-5">
    <rect x="0" y="123.5" width="1342" height="24.65"/>
            </clipPath>
<clipPath id="terminal-792540815-line-6">
    <rect x="0" y="147.9" width="1342" height="24.65"/>
            </clipPath>
<clipPath id="terminal-792540815-line-7">
    <rect x="0" y="172.3" width="1342" height="24.65"/>
            </clipPath>
<clipPath id="terminal-792540815-line-8">
    <rect x="0" y="196.7" width="1342" height="24.65"/>
            </clipPath>
<clipPath id="terminal-792540815-line-9">
    <rect x="0" y="221.1" width="1342" height="24.65"/>
            </clipPath>
<clipPath id="terminal-792540815-line-10">
    <rect x="0" y="245.5" width="1342" height="24.65"/>
            </clipPath>
<clipPath id="terminal-792540815-line-11">
    <rect x="0" y="269.9" width="1342" height="24.65"/>
            </clipPath>
<clipPath id="terminal-792540815-line-12">
    <rect x="0" y="294.3" width="1342" height="24.65"/>
            </clipPath>
<clipPath id="terminal-792540815-line-13">
    <rect x="0" y="318.7" width="1342" height="24.65"/>
            </clipPath>
<clipPath id="terminal-792540815-line-14">
    <rect x="0" y="343.1" width="1342" height="24.65"/>
            </clipPath>
<clipPath id="terminal-792540815-line-15">
    <rect x="0" y="367.5" width="1342" height="24.65"/>
            </clipPath>
<clipPath id="terminal-792540815-line-16">
    <rect x="0" y="391.9" width="1342" height="24.65"/>
            </clipPath>
<clipPath id="terminal-792540815-line-17">
    <rect x="0" y="416.3" width="1342" height="24.65"/>
            </clipPath>
<clipPath id="terminal-792540815-line-18">
    <rect x="0" y="440.7" width="1342" height="24.65"/>
            </clipPath>
<clipPath id="terminal-792540815-line-19">
    <rect x="0" y="465.1" width="1342" height="24.65"/>
            </clipPath>
<clipPath id="terminal-792540815-line-20">
    <rect x="0" y="489.5" width="1342" height="24.65"/>
            </clipPath>
<clipPath id="terminal-792540815-line-21">
    <rect x="0" y="513.9" width="1342" height="24.65"/>
            </clipPath>
<clipPath id="terminal-792540815-line-22">
    <rect x="0" y="538.3" width="1342" height="24.65"/>
            </clipPath>
<clipPath id="terminal-792540815-line-23">
    <rect x="0" y="562.7" width="1342" height="24.65"/>
            </clipPath>
<clipPath id="terminal-792540815-line-24">
    <rect x="0" y="587.1" width="1342" height="24.65"/>
            </clipPath>
<clipPath id="terminal-792540815-line-25">
    <rect x="0" y="611.5" width="1342" height="24.65"/>
            </clipPath>
<clipPath id="terminal-792540815-line-26">
    <rect x="0" y="635.9" width="1342" height="24.65"/>
            </clipPath>
<clipPath id="terminal-792540815-line-27">
    <rect x="0" y="660.3" width="1342" height="24.65"/>
            </clipPath>
<clipPath id="terminal-792540815-line-28">
    <rect x="0" y="684.7" width="1342" height="24.65"/>
            </clipPath>
<clipPath id="terminal-792540815-line-29">
    <rect x="0" y="709.1" width="1342" height="24.65"/>
            </clipPath>
<clipPath id="terminal-792540815-line-30">
    <rect x="0" y="733.5" width="1342" height="24.65"/>
            </clipPath>
<clipPath id="terminal-792540815-line-31">
    <rect x="0" y="757.9" width="1342" height="24.65"/>
            </clipPath>
<clipPath id="terminal-792540815-line-32">
    <rect x="0" y="782.3" width="1342" height="24.65"/>
            </clipPath>
<clipPath id="terminal-792540815-line-33">
    <rect x="0" y="806.7" width="1342" height="24.65"/>
            </clipPath>
    </defs>

    <rect fill="#292929" stroke="rgba(255,255,255,0.35)" stroke-width="1" x="1" y="1" width="1358" height="902" rx="8"/><text class="terminal-792540815-title" fill="#c5c8c6" text-anchor="middle" x="679" y="27">Losangelex&#160;·&#160;Hollywood&#160;team&#160;room</text>
            <g transform="translate(26,22)">
            <circle cx="0" cy="0" r="7" fill="#ff5f57"/>
            <circle cx="22" cy="0" r="7" fill="#febc2e"/>
            <circle cx="44" cy="0" r="7" fill="#28c840"/>
            </g>

    <g transform="translate(9, 41)" clip-path="url(#terminal-792540815-clip-terminal)">
    <rect fill="#171717" x="0" y="1.5" width="12.2" height="24.65" shape-rendering="crispEdges"/><rect fill="#171717" x="12.2" y="1.5" width="414.8" height="24.65" shape-rendering="crispEdges"/><rect fill="#171717" x="427" y="1.5" width="12.2" height="24.65" shape-rendering="crispEdges"/><rect fill="#171717" x="439.2" y="1.5" width="902.8" height="24.65" shape-rendering="crispEdges"/><rect fill="#171717" x="0" y="25.9" width="12.2" height="24.65" shape-rendering="crispEdges"/><rect fill="#171717" x="12.2" y="25.9" width="414.8" height="24.65" shape-rendering="crispEdges"/><rect fill="#171717" x="427" y="25.9" width="12.2" height="24.65" shape-rendering="crispEdges"/><rect fill="#171717" x="439.2" y="25.9" width="902.8" height="24.65" shape-rendering="crispEdges"/><rect fill="#191919" x="0" y="50.3" width="12.2" height="24.65" shape-rendering="crispEdges"/><rect fill="#1e1e1e" x="12.2" y="50.3" width="646.6" height="24.65" shape-rendering="crispEdges"/><rect fill="#171717" x="658.8" y="50.3" width="12.2" height="24.65" shape-rendering="crispEdges"/><rect fill="#191919" x="671" y="50.3" width="12.2" height="24.65" shape-rendering="crispEdges"/><rect fill="#1e1e1e" x="683.2" y="50.3" width="646.6" height="24.65" shape-rendering="crispEdges"/><rect fill="#171717" x="1329.8" y="50.3" width="12.2" height="24.65" shape-rendering="crispEdges"/><rect fill="#191919" x="0" y="74.7" width="12.2" height="24.65" shape-rendering="crispEdges"/><rect fill="#1e1e1e" x="12.2" y="74.7" width="24.4" height="24.65" shape-rendering="crispEdges"/><rect fill="#1e1e1e" x="36.6" y="74.7" width="146.4" height="24.65" shape-rendering="crispEdges"/><rect fill="#1e1e1e" x="183" y="74.7" width="427" height="24.65" shape-rendering="crispEdges"/><rect fill="#1e1e1e" x="610" y="74.7" width="12.2" height="24.65" shape-rendering="crispEdges"/><rect fill="#1e1e1e" x="622.2" y="74.7" width="12.2" height="24.65" shape-rendering="crispEdges"/><rect fill="#1e1e1e" x="634.4" y="74.7" width="24.4" height="24.65" shape-rendering="crispEdges"/><rect fill="#171717" x="658.8" y="74.7" width="12.2" height="24.65" shape-rendering="crispEdges"/><rect fill="#191919" x="671" y="74.7" width="12.2" height="24.65" shape-rendering="crispEdges"/><rect fill="#1e1e1e" x="683.2" y="74.7" width="24.4" height="24.65" shape-rendering="crispEdges"/><rect fill="#1e1e1e" x="707.6" y="74.7" width="134.2" height="24.65" shape-rendering="crispEdges"/><rect fill="#1e1e1e" x="841.8" y="74.7" width="439.2" height="24.65" shape-rendering="crispEdges"/><rect fill="#1e1e1e" x="1281" y="74.7" width="12.2" height="24.65" shape-rendering="crispEdges"/><rect fill="#1e1e1e" x="1293.2" y="74.7" width="12.2" height="24.65" shape-rendering="crispEdges"/><rect fill="#1e1e1e" x="1305.4" y="74.7" width="24.4" height="24.65" shape-rendering="crispEdges"/><rect fill="#171717" x="1329.8" y="74.7" width="12.2" height="24.65" shape-rendering="crispEdges"/><rect fill="#191919" x="0" y="99.1" width="12.2" height="24.65" shape-rendering="crispEdges"/><rect fill="#1e1e1e" x="12.2" y="99.1" width="646.6" height="24.65" shape-rendering="crispEdges"/><rect fill="#171717" x="658.8" y="99.1" width="12.2" height="24.65" shape-rendering="crispEdges"/><rect fill="#191919" x="671" y="99.1" width="12.2" height="24.65" shape-rendering="crispEdges"/><rect fill="#1e1e1e" x="683.2" y="99.1" width="646.6" height="24.65" shape-rendering="crispEdges"/><rect fill="#171717" x="1329.8" y="99.1" width="12.2" height="24.65" shape-rendering="crispEdges"/><rect fill="#171717" x="0" y="123.5" width="12.2" height="24.65" shape-rendering="crispEdges"/><rect fill="#171717" x="12.2" y="123.5" width="561.2" height="24.65" shape-rendering="crispEdges"/><rect fill="#171717" x="573.4" y="123.5" width="12.2" height="24.65" shape-rendering="crispEdges"/><rect fill="#171717" x="585.6" y="123.5" width="756.4" height="24.65" shape-rendering="crispEdges"/><rect fill="#171717" x="0" y="147.9" width="12.2" height="24.65" shape-rendering="crispEdges"/><rect fill="#171717" x="12.2" y="147.9" width="1317.6" height="24.65" shape-rendering="crispEdges"/><rect fill="#171717" x="1329.8" y="147.9" width="12.2" height="24.65" shape-rendering="crispEdges"/><rect fill="#171717" x="0" y="172.3" width="12.2" height="24.65" shape-rendering="crispEdges"/><rect fill="#171717" x="12.2" y="172.3" width="1317.6" height="24.65" shape-rendering="crispEdges"/><rect fill="#171717" x="1329.8" y="172.3" width="12.2" height="24.65" shape-rendering="crispEdges"/><rect fill="#171717" x="0" y="196.7" width="12.2" height="24.65" shape-rendering="crispEdges"/><rect fill="#171717" x="12.2" y="196.7" width="1317.6" height="24.65" shape-rendering="crispEdges"/><rect fill="#171717" x="1329.8" y="196.7" width="12.2" height="24.65" shape-rendering="crispEdges"/><rect fill="#171717" x="0" y="221.1" width="12.2" height="24.65" shape-rendering="crispEdges"/><rect fill="#171717" x="12.2" y="221.1" width="1317.6" height="24.65" shape-rendering="crispEdges"/><rect fill="#171717" x="1329.8" y="221.1" width="12.2" height="24.65" shape-rendering="crispEdges"/><rect fill="#171717" x="0" y="245.5" width="12.2" height="24.65" shape-rendering="crispEdges"/><rect fill="#171717" x="12.2" y="245.5" width="1317.6" height="24.65" shape-rendering="crispEdges"/><rect fill="#171717" x="1329.8" y="245.5" width="12.2" height="24.65" shape-rendering="crispEdges"/><rect fill="#171717" x="0" y="269.9" width="12.2" height="24.65" shape-rendering="crispEdges"/><rect fill="#171717" x="12.2" y="269.9" width="1317.6" height="24.65" shape-rendering="crispEdges"/><rect fill="#171717" x="1329.8" y="269.9" width="12.2" height="24.65" shape-rendering="crispEdges"/><rect fill="#171717" x="0" y="294.3" width="12.2" height="24.65" shape-rendering="crispEdges"/><rect fill="#171717" x="12.2" y="294.3" width="1317.6" height="24.65" shape-rendering="crispEdges"/><rect fill="#171717" x="1329.8" y="294.3" width="12.2" height="24.65" shape-rendering="crispEdges"/><rect fill="#171717" x="0" y="318.7" width="12.2" height="24.65" shape-rendering="crispEdges"/><rect fill="#171717" x="12.2" y="318.7" width="1317.6" height="24.65" shape-rendering="crispEdges"/><rect fill="#171717" x="1329.8" y="318.7" width="12.2" height="24.65" shape-rendering="crispEdges"/><rect fill="#171717" x="0" y="343.1" width="12.2" height="24.65" shape-rendering="crispEdges"/><rect fill="#171717" x="12.2" y="343.1" width="1317.6" height="24.65" shape-rendering="crispEdges"/><rect fill="#171717" x="1329.8" y="343.1" width="12.2" height="24.65" shape-rendering="crispEdges"/><rect fill="#171717" x="0" y="367.5" width="12.2" height="24.65" shape-rendering="crispEdges"/><rect fill="#171717" x="12.2" y="367.5" width="1317.6" height="24.65" shape-rendering="crispEdges"/><rect fill="#171717" x="1329.8" y="367.5" width="12.2" height="24.65" shape-rendering="crispEdges"/><rect fill="#171717" x="0" y="391.9" width="12.2" height="24.65" shape-rendering="crispEdges"/><rect fill="#171717" x="12.2" y="391.9" width="1317.6" height="24.65" shape-rendering="crispEdges"/><rect fill="#171717" x="1329.8" y="391.9" width="12.2" height="24.65" shape-rendering="crispEdges"/><rect fill="#171717" x="0" y="416.3" width="12.2" height="24.65" shape-rendering="crispEdges"/><rect fill="#171717" x="12.2" y="416.3" width="1317.6" height="24.65" shape-rendering="crispEdges"/><rect fill="#171717" x="1329.8" y="416.3" width="12.2" height="24.65" shape-rendering="crispEdges"/><rect fill="#171717" x="0" y="440.7" width="12.2" height="24.65" shape-rendering="crispEdges"/><rect fill="#171717" x="12.2" y="440.7" width="1317.6" height="24.65" shape-rendering="crispEdges"/><rect fill="#171717" x="1329.8" y="440.7" width="12.2" height="24.65" shape-rendering="crispEdges"/><rect fill="#171717" x="0" y="465.1" width="12.2" height="24.65" shape-rendering="crispEdges"/><rect fill="#171717" x="12.2" y="465.1" width="1317.6" height="24.65" shape-rendering="crispEdges"/><rect fill="#171717" x="1329.8" y="465.1" width="12.2" height="24.65" shape-rendering="crispEdges"/><rect fill="#171717" x="0" y="489.5" width="12.2" height="24.65" shape-rendering="crispEdges"/><rect fill="#171717" x="12.2" y="489.5" width="1317.6" height="24.65" shape-rendering="crispEdges"/><rect fill="#171717" x="1329.8" y="489.5" width="12.2" height="24.65" shape-rendering="crispEdges"/><rect fill="#171717" x="0" y="513.9" width="12.2" height="24.65" shape-rendering="crispEdges"/><rect fill="#171717" x="12.2" y="513.9" width="1317.6" height="24.65" shape-rendering="crispEdges"/><rect fill="#171717" x="1329.8" y="513.9" width="12.2" height="24.65" shape-rendering="crispEdges"/><rect fill="#171717" x="0" y="538.3" width="12.2" height="24.65" shape-rendering="crispEdges"/><rect fill="#171717" x="12.2" y="538.3" width="1317.6" height="24.65" shape-rendering="crispEdges"/><rect fill="#171717" x="1329.8" y="538.3" width="12.2" height="24.65" shape-rendering="crispEdges"/><rect fill="#171717" x="0" y="562.7" width="12.2" height="24.65" shape-rendering="crispEdges"/><rect fill="#171717" x="12.2" y="562.7" width="1317.6" height="24.65" shape-rendering="crispEdges"/><rect fill="#171717" x="1329.8" y="562.7" width="12.2" height="24.65" shape-rendering="crispEdges"/><rect fill="#171717" x="0" y="587.1" width="12.2" height="24.65" shape-rendering="crispEdges"/><rect fill="#171717" x="12.2" y="587.1" width="1317.6" height="24.65" shape-rendering="crispEdges"/><rect fill="#171717" x="1329.8" y="587.1" width="12.2" height="24.65" shape-rendering="crispEdges"/><rect fill="#171717" x="0" y="611.5" width="12.2" height="24.65" shape-rendering="crispEdges"/><rect fill="#171717" x="12.2" y="611.5" width="0" height="24.65" shape-rendering="crispEdges"/><rect fill="#171717" x="12.2" y="611.5" width="12.2" height="24.65" shape-rendering="crispEdges"/><rect fill="#171717" x="24.4" y="611.5" width="1317.6" height="24.65" shape-rendering="crispEdges"/><rect fill="#1e1e1e" x="0" y="635.9" width="12.2" height="24.65" shape-rendering="crispEdges"/><rect fill="#1e1e1e" x="12.2" y="635.9" width="1317.6" height="24.65" shape-rendering="crispEdges"/><rect fill="#1e1e1e" x="1329.8" y="635.9" width="12.2" height="24.65" shape-rendering="crispEdges"/><rect fill="#1e1e1e" x="0" y="660.3" width="12.2" height="24.65" shape-rendering="crispEdges"/><rect fill="#1e1e1e" x="12.2" y="660.3" width="12.2" height="24.65" shape-rendering="crispEdges"/><rect fill="#e0e0e0" x="24.4" y="660.3" width="12.2" height="24.65" shape-rendering="crispEdges"/><rect fill="#262626" x="36.6" y="660.3" width="1281" height="24.65" shape-rendering="crispEdges"/><rect fill="#1e1e1e" x="1317.6" y="660.3" width="12.2" height="24.65" shape-rendering="crispEdges"/><rect fill="#1e1e1e" x="1329.8" y="660.3" width="12.2" height="24.65" shape-rendering="crispEdges"/><rect fill="#1e1e1e" x="0" y="684.7" width="12.2" height="24.65" shape-rendering="crispEdges"/><rect fill="#1e1e1e" x="12.2" y="684.7" width="12.2" height="24.65" shape-rendering="crispEdges"/><rect fill="#1e1e1e" x="24.4" y="684.7" width="1293.2" height="24.65" shape-rendering="crispEdges"/><rect fill="#1e1e1e" x="1317.6" y="684.7" width="12.2" height="24.65" shape-rendering="crispEdges"/><rect fill="#1e1e1e" x="1329.8" y="684.7" width="12.2" height="24.65" shape-rendering="crispEdges"/><rect fill="#1e1e1e" x="0" y="709.1" width="12.2" height="24.65" shape-rendering="crispEdges"/><rect fill="#1e1e1e" x="12.2" y="709.1" width="12.2" height="24.65" shape-rendering="crispEdges"/><rect fill="#1e1e1e" x="24.4" y="709.1" width="1293.2" height="24.65" shape-rendering="crispEdges"/><rect fill="#1e1e1e" x="1317.6" y="709.1" width="12.2" height="24.65" shape-rendering="crispEdges"/><rect fill="#1e1e1e" x="1329.8" y="709.1" width="12.2" height="24.65" shape-rendering="crispEdges"/><rect fill="#1e1e1e" x="0" y="733.5" width="12.2" height="24.65" shape-rendering="crispEdges"/><rect fill="#1e1e1e" x="12.2" y="733.5" width="1317.6" height="24.65" shape-rendering="crispEdges"/><rect fill="#1e1e1e" x="1329.8" y="733.5" width="12.2" height="24.65" shape-rendering="crispEdges"/><rect fill="#656565" x="0" y="757.9" width="329.4" height="24.65" shape-rendering="crispEdges"/><rect fill="#1e1e1e" x="329.4" y="757.9" width="341.6" height="24.65" shape-rendering="crispEdges"/><rect fill="#1e1e1e" x="671" y="757.9" width="329.4" height="24.65" shape-rendering="crispEdges"/><rect fill="#1e1e1e" x="1000.4" y="757.9" width="341.6" height="24.65" shape-rendering="crispEdges"/><rect fill="#656565" x="0" y="782.3" width="122" height="24.65" shape-rendering="crispEdges"/><rect fill="#656565" x="122" y="782.3" width="73.2" height="24.65" shape-rendering="crispEdges"/><rect fill="#656565" x="195.2" y="782.3" width="134.2" height="24.65" shape-rendering="crispEdges"/><rect fill="#1e1e1e" x="329.4" y="782.3" width="97.6" height="24.65" shape-rendering="crispEdges"/><rect fill="#1e1e1e" x="427" y="782.3" width="134.2" height="24.65" shape-rendering="crispEdges"/><rect fill="#1e1e1e" x="561.2" y="782.3" width="109.8" height="24.65" shape-rendering="crispEdges"/><rect fill="#1e1e1e" x="671" y="782.3" width="109.8" height="24.65" shape-rendering="crispEdges"/><rect fill="#1e1e1e" x="780.8" y="782.3" width="97.6" height="24.65" shape-rendering="crispEdges"/><rect fill="#1e1e1e" x="878.4" y="782.3" width="122" height="24.65" shape-rendering="crispEdges"/><rect fill="#1e1e1e" x="1000.4" y="782.3" width="134.2" height="24.65" shape-rendering="crispEdges"/><rect fill="#1e1e1e" x="1134.6" y="782.3" width="73.2" height="24.65" shape-rendering="crispEdges"/><rect fill="#1e1e1e" x="1207.8" y="782.3" width="134.2" height="24.65" shape-rendering="crispEdges"/><rect fill="#656565" x="0" y="806.7" width="329.4" height="24.65" shape-rendering="crispEdges"/><rect fill="#1e1e1e" x="329.4" y="806.7" width="341.6" height="24.65" shape-rendering="crispEdges"/><rect fill="#1e1e1e" x="671" y="806.7" width="329.4" height="24.65" shape-rendering="crispEdges"/><rect fill="#1e1e1e" x="1000.4" y="806.7" width="341.6" height="24.65" shape-rendering="crispEdges"/><rect fill="#2d2d2d" x="0" y="831.1" width="48.8" height="24.65" shape-rendering="crispEdges"/><rect fill="#2d2d2d" x="48.8" y="831.1" width="134.2" height="24.65" shape-rendering="crispEdges"/><rect fill="#2d2d2d" x="183" y="831.1" width="48.8" height="24.65" shape-rendering="crispEdges"/><rect fill="#2d2d2d" x="231.8" y="831.1" width="61" height="24.65" shape-rendering="crispEdges"/><rect fill="#2d2d2d" x="292.8" y="831.1" width="48.8" height="24.65" shape-rendering="crispEdges"/><rect fill="#2d2d2d" x="341.6" y="831.1" width="61" height="24.65" shape-rendering="crispEdges"/><rect fill="#2d2d2d" x="402.6" y="831.1" width="48.8" height="24.65" shape-rendering="crispEdges"/><rect fill="#2d2d2d" x="451.4" y="831.1" width="85.4" height="24.65" shape-rendering="crispEdges"/><rect fill="#2d2d2d" x="536.8" y="831.1" width="658.8" height="24.65" shape-rendering="crispEdges"/><rect fill="#2d2d2d" x="1195.6" y="831.1" width="12.2" height="24.65" shape-rendering="crispEdges"/><rect fill="#2d2d2d" x="1207.8" y="831.1" width="24.4" height="24.65" shape-rendering="crispEdges"/><rect fill="#2d2d2d" x="1232.2" y="831.1" width="97.6" height="24.65" shape-rendering="crispEdges"/><rect fill="#2d2d2d" x="1329.8" y="831.1" width="12.2" height="24.65" shape-rendering="crispEdges"/>
    <g class="terminal-792540815-matrix">
    <text class="terminal-792540815-r2" x="12.2" y="20" textLength="414.8" clip-path="url(#terminal-792540815-line-0)">LOSANGELEX&#160;&#160;·&#160;&#160;Hollywood&#160;team&#160;room</text><text class="terminal-792540815-r1" x="1342" y="20" textLength="12.2" clip-path="url(#terminal-792540815-line-0)">
</text><text class="terminal-792540815-r1" x="1342" y="44.4" textLength="12.2" clip-path="url(#terminal-792540815-line-1)">
</text><text class="terminal-792540815-r3" x="0" y="68.8" textLength="12.2" clip-path="url(#terminal-792540815-line-2)">▊</text><text class="terminal-792540815-r4" x="12.2" y="68.8" textLength="646.6" clip-path="url(#terminal-792540815-line-2)">▔▔▔▔▔▔▔▔▔▔▔▔▔▔▔▔▔▔▔▔▔▔▔▔▔▔▔▔▔▔▔▔▔▔▔▔▔▔▔▔▔▔▔▔▔▔▔▔▔▔▔▔▔</text><text class="terminal-792540815-r4" x="658.8" y="68.8" textLength="12.2" clip-path="url(#terminal-792540815-line-2)">▎</text><text class="terminal-792540815-r3" x="671" y="68.8" textLength="12.2" clip-path="url(#terminal-792540815-line-2)">▊</text><text class="terminal-792540815-r4" x="683.2" y="68.8" textLength="646.6" clip-path="url(#terminal-792540815-line-2)">▔▔▔▔▔▔▔▔▔▔▔▔▔▔▔▔▔▔▔▔▔▔▔▔▔▔▔▔▔▔▔▔▔▔▔▔▔▔▔▔▔▔▔▔▔▔▔▔▔▔▔▔▔</text><text class="terminal-792540815-r4" x="1329.8" y="68.8" textLength="12.2" clip-path="url(#terminal-792540815-line-2)">▎</text><text class="terminal-792540815-r1" x="1342" y="68.8" textLength="12.2" clip-path="url(#terminal-792540815-line-2)">
</text><text class="terminal-792540815-r3" x="0" y="93.2" textLength="12.2" clip-path="url(#terminal-792540815-line-3)">▊</text><text class="terminal-792540815-r5" x="36.6" y="93.2" textLength="146.4" clip-path="url(#terminal-792540815-line-3)">Project&#160;room</text><text class="terminal-792540815-r6" x="622.2" y="93.2" textLength="12.2" clip-path="url(#terminal-792540815-line-3)">▼</text><text class="terminal-792540815-r4" x="658.8" y="93.2" textLength="12.2" clip-path="url(#terminal-792540815-line-3)">▎</text><text class="terminal-792540815-r3" x="671" y="93.2" textLength="12.2" clip-path="url(#terminal-792540815-line-3)">▊</text><text class="terminal-792540815-r5" x="707.6" y="93.2" textLength="134.2" clip-path="url(#terminal-792540815-line-3)">Shared&#160;room</text><text class="terminal-792540815-r6" x="1293.2" y="93.2" textLength="12.2" clip-path="url(#terminal-792540815-line-3)">▼</text><text class="terminal-792540815-r4" x="1329.8" y="93.2" textLength="12.2" clip-path="url(#terminal-792540815-line-3)">▎</text><text class="terminal-792540815-r1" x="1342" y="93.2" textLength="12.2" clip-path="url(#terminal-792540815-line-3)">
</text><text class="terminal-792540815-r3" x="0" y="117.6" textLength="12.2" clip-path="url(#terminal-792540815-line-4)">▊</text><text class="terminal-792540815-r4" x="12.2" y="117.6" textLength="646.6" clip-path="url(#terminal-792540815-line-4)">▁▁▁▁▁▁▁▁▁▁▁▁▁▁▁▁▁▁▁▁▁▁▁▁▁▁▁▁▁▁▁▁▁▁▁▁▁▁▁▁▁▁▁▁▁▁▁▁▁▁▁▁▁</text><text class="terminal-792540815-r4" x="658.8" y="117.6" textLength="12.2" clip-path="url(#terminal-792540815-line-4)">▎</text><text class="terminal-792540815-r3" x="671" y="117.6" textLength="12.2" clip-path="url(#terminal-792540815-line-4)">▊</text><text class="terminal-792540815-r4" x="683.2" y="117.6" textLength="646.6" clip-path="url(#terminal-792540815-line-4)">▁▁▁▁▁▁▁▁▁▁▁▁▁▁▁▁▁▁▁▁▁▁▁▁▁▁▁▁▁▁▁▁▁▁▁▁▁▁▁▁▁▁▁▁▁▁▁▁▁▁▁▁▁</text><text class="terminal-792540815-r4" x="1329.8" y="117.6" textLength="12.2" clip-path="url(#terminal-792540815-line-4)">▎</text><text class="terminal-792540815-r1" x="1342" y="117.6" textLength="12.2" clip-path="url(#terminal-792540815-line-4)">
</text><text class="terminal-792540815-r7" x="12.2" y="142" textLength="561.2" clip-path="url(#terminal-792540815-line-5)">Connected&#160;·&#160;address&#160;a&#160;name&#160;to&#160;talk&#160;in&#160;the&#160;room</text><text class="terminal-792540815-r1" x="1342" y="142" textLength="12.2" clip-path="url(#terminal-792540815-line-5)">
</text><text class="terminal-792540815-r1" x="1342" y="166.4" textLength="12.2" clip-path="url(#terminal-792540815-line-6)">
</text><text class="terminal-792540815-r1" x="1342" y="190.8" textLength="12.2" clip-path="url(#terminal-792540815-line-7)">
</text><text class="terminal-792540815-r1" x="1342" y="215.2" textLength="12.2" clip-path="url(#terminal-792540815-line-8)">
</text><text class="terminal-792540815-r1" x="1342" y="239.6" textLength="12.2" clip-path="url(#terminal-792540815-line-9)">
</text><text class="terminal-792540815-r1" x="1342" y="264" textLength="12.2" clip-path="url(#terminal-792540815-line-10)">
</text><text class="terminal-792540815-r1" x="1342" y="288.4" textLength="12.2" clip-path="url(#terminal-792540815-line-11)">
</text><text class="terminal-792540815-r1" x="1342" y="312.8" textLength="12.2" clip-path="url(#terminal-792540815-line-12)">
</text><text class="terminal-792540815-r1" x="1342" y="337.2" textLength="12.2" clip-path="url(#terminal-792540815-line-13)">
</text><text class="terminal-792540815-r1" x="1342" y="361.6" textLength="12.2" clip-path="url(#terminal-792540815-line-14)">
</text><text class="terminal-792540815-r1" x="1342" y="386" textLength="12.2" clip-path="url(#terminal-792540815-line-15)">
</text><text class="terminal-792540815-r1" x="1342" y="410.4" textLength="12.2" clip-path="url(#terminal-792540815-line-16)">
</text><text class="terminal-792540815-r1" x="1342" y="434.8" textLength="12.2" clip-path="url(#terminal-792540815-line-17)">
</text><text class="terminal-792540815-r1" x="1342" y="459.2" textLength="12.2" clip-path="url(#terminal-792540815-line-18)">
</text><text class="terminal-792540815-r1" x="1342" y="483.6" textLength="12.2" clip-path="url(#terminal-792540815-line-19)">
</text><text class="terminal-792540815-r1" x="1342" y="508" textLength="12.2" clip-path="url(#terminal-792540815-line-20)">
</text><text class="terminal-792540815-r1" x="1342" y="532.4" textLength="12.2" clip-path="url(#terminal-792540815-line-21)">
</text><text class="terminal-792540815-r1" x="1342" y="556.8" textLength="12.2" clip-path="url(#terminal-792540815-line-22)">
</text><text class="terminal-792540815-r1" x="1342" y="581.2" textLength="12.2" clip-path="url(#terminal-792540815-line-23)">
</text><text class="terminal-792540815-r1" x="1342" y="605.6" textLength="12.2" clip-path="url(#terminal-792540815-line-24)">
</text><text class="terminal-792540815-r1" x="1342" y="630" textLength="12.2" clip-path="url(#terminal-792540815-line-25)">
</text><text class="terminal-792540815-r9" x="0" y="654.4" textLength="12.2" clip-path="url(#terminal-792540815-line-26)">╭</text><text class="terminal-792540815-r9" x="12.2" y="654.4" textLength="1317.6" clip-path="url(#terminal-792540815-line-26)">────────────────────────────────────────────────────────────────────────────────────────────────────────────</text><text class="terminal-792540815-r9" x="1329.8" y="654.4" textLength="12.2" clip-path="url(#terminal-792540815-line-26)">╮</text><text class="terminal-792540815-r1" x="1342" y="654.4" textLength="12.2" clip-path="url(#terminal-792540815-line-26)">
</text><text class="terminal-792540815-r9" x="0" y="678.8" textLength="12.2" clip-path="url(#terminal-792540815-line-27)">│</text><text class="terminal-792540815-r9" x="1329.8" y="678.8" textLength="12.2" clip-path="url(#terminal-792540815-line-27)">│</text><text class="terminal-792540815-r1" x="1342" y="678.8" textLength="12.2" clip-path="url(#terminal-792540815-line-27)">
</text><text class="terminal-792540815-r9" x="0" y="703.2" textLength="12.2" clip-path="url(#terminal-792540815-line-28)">│</text><text class="terminal-792540815-r9" x="1329.8" y="703.2" textLength="12.2" clip-path="url(#terminal-792540815-line-28)">│</text><text class="terminal-792540815-r1" x="1342" y="703.2" textLength="12.2" clip-path="url(#terminal-792540815-line-28)">
</text><text class="terminal-792540815-r9" x="0" y="727.6" textLength="12.2" clip-path="url(#terminal-792540815-line-29)">│</text><text class="terminal-792540815-r9" x="1329.8" y="727.6" textLength="12.2" clip-path="url(#terminal-792540815-line-29)">│</text><text class="terminal-792540815-r1" x="1342" y="727.6" textLength="12.2" clip-path="url(#terminal-792540815-line-29)">
</text><text class="terminal-792540815-r9" x="0" y="752" textLength="12.2" clip-path="url(#terminal-792540815-line-30)">╰</text><text class="terminal-792540815-r9" x="12.2" y="752" textLength="1317.6" clip-path="url(#terminal-792540815-line-30)">────────────────────────────────────────────────────────────────────────────────────────────────────────────</text><text class="terminal-792540815-r9" x="1329.8" y="752" textLength="12.2" clip-path="url(#terminal-792540815-line-30)">╯</text><text class="terminal-792540815-r1" x="1342" y="752" textLength="12.2" clip-path="url(#terminal-792540815-line-30)">
</text><text class="terminal-792540815-r11" x="0" y="776.4" textLength="329.4" clip-path="url(#terminal-792540815-line-31)">▔▔▔▔▔▔▔▔▔▔▔▔▔▔▔▔▔▔▔▔▔▔▔▔▔▔▔</text><text class="terminal-792540815-r12" x="329.4" y="776.4" textLength="341.6" clip-path="url(#terminal-792540815-line-31)">▔▔▔▔▔▔▔▔▔▔▔▔▔▔▔▔▔▔▔▔▔▔▔▔▔▔▔▔</text><text class="terminal-792540815-r12" x="671" y="776.4" textLength="329.4" clip-path="url(#terminal-792540815-line-31)">▔▔▔▔▔▔▔▔▔▔▔▔▔▔▔▔▔▔▔▔▔▔▔▔▔▔▔</text><text class="terminal-792540815-r12" x="1000.4" y="776.4" textLength="341.6" clip-path="url(#terminal-792540815-line-31)">▔▔▔▔▔▔▔▔▔▔▔▔▔▔▔▔▔▔▔▔▔▔▔▔▔▔▔▔</text><text class="terminal-792540815-r1" x="1342" y="776.4" textLength="12.2" clip-path="url(#terminal-792540815-line-31)">
</text><text class="terminal-792540815-r13" x="122" y="800.8" textLength="73.2" clip-path="url(#terminal-792540815-line-32)">&#160;Send&#160;</text><text class="terminal-792540815-r14" x="427" y="800.8" textLength="134.2" clip-path="url(#terminal-792540815-line-32)">&#160;Needs&#160;you&#160;</text><text class="terminal-792540815-r14" x="780.8" y="800.8" textLength="97.6" clip-path="url(#terminal-792540815-line-32)">&#160;Status&#160;</text><text class="terminal-792540815-r14" x="1134.6" y="800.8" textLength="73.2" clip-path="url(#terminal-792540815-line-32)">&#160;Stop&#160;</text><text class="terminal-792540815-r1" x="1342" y="800.8" textLength="12.2" clip-path="url(#terminal-792540815-line-32)">
</text><text class="terminal-792540815-r15" x="0" y="825.2" textLength="329.4" clip-path="url(#terminal-792540815-line-33)">▁▁▁▁▁▁▁▁▁▁▁▁▁▁▁▁▁▁▁▁▁▁▁▁▁▁▁</text><text class="terminal-792540815-r16" x="329.4" y="825.2" textLength="341.6" clip-path="url(#terminal-792540815-line-33)">▁▁▁▁▁▁▁▁▁▁▁▁▁▁▁▁▁▁▁▁▁▁▁▁▁▁▁▁</text><text class="terminal-792540815-r16" x="671" y="825.2" textLength="329.4" clip-path="url(#terminal-792540815-line-33)">▁▁▁▁▁▁▁▁▁▁▁▁▁▁▁▁▁▁▁▁▁▁▁▁▁▁▁</text><text class="terminal-792540815-r16" x="1000.4" y="825.2" textLength="341.6" clip-path="url(#terminal-792540815-line-33)">▁▁▁▁▁▁▁▁▁▁▁▁▁▁▁▁▁▁▁▁▁▁▁▁▁▁▁▁</text><text class="terminal-792540815-r1" x="1342" y="825.2" textLength="12.2" clip-path="url(#terminal-792540815-line-33)">
</text><text class="terminal-792540815-r17" x="0" y="849.6" textLength="48.8" clip-path="url(#terminal-792540815-line-34)">&#160;^q&#160;</text><text class="terminal-792540815-r5" x="48.8" y="849.6" textLength="134.2" clip-path="url(#terminal-792540815-line-34)">Disconnect&#160;</text><text class="terminal-792540815-r17" x="183" y="849.6" textLength="48.8" clip-path="url(#terminal-792540815-line-34)">&#160;^⏎&#160;</text><text class="terminal-792540815-r5" x="231.8" y="849.6" textLength="61" clip-path="url(#terminal-792540815-line-34)">Send&#160;</text><text class="terminal-792540815-r17" x="292.8" y="849.6" textLength="48.8" clip-path="url(#terminal-792540815-line-34)">&#160;^l&#160;</text><text class="terminal-792540815-r5" x="341.6" y="849.6" textLength="61" clip-path="url(#terminal-792540815-line-34)">Room&#160;</text><text class="terminal-792540815-r17" x="402.6" y="849.6" textLength="48.8" clip-path="url(#terminal-792540815-line-34)">&#160;^o&#160;</text><text class="terminal-792540815-r5" x="451.4" y="849.6" textLength="85.4" clip-path="url(#terminal-792540815-line-34)">Status&#160;</text><text class="terminal-792540815-r18" x="1195.6" y="849.6" textLength="12.2" clip-path="url(#terminal-792540815-line-34)">▏</text><text class="terminal-792540815-r17" x="1207.8" y="849.6" textLength="24.4" clip-path="url(#terminal-792540815-line-34)">^p</text><text class="terminal-792540815-r5" x="1232.2" y="849.6" textLength="97.6" clip-path="url(#terminal-792540815-line-34)">&#160;palette</text>
    </g>
    </g>
</svg>
